<svg width="512" height="512" viewBox="0 0 512 512" fill="none" xmlns="http://www.w3.org/2000/svg">
<path d="M256 480C132.288 480 32 379.712 32 256C32 132.288 132.288 32 256 32C379.712 32 480 132.288 480 256C480 379.712 379.712 480 256 480ZM256 512C397.386 512 512 397.386 512 256C512 114.615 397.386 0 256 0C114.615 0 0 114.615 0 256C0 397.386 114.615 512 256 512Z" fill="#D9D9D9"/>
<path d="M128 256C128 244.954 135.164 236 144 236H368C376.835 236 384 244.954 384 256C384 267.046 376.835 276 368 276H144C135.164 276 128 267.046 128 256Z" fill="#4F4FC2"/>
</svg>
