<svg width="512" height="512" viewBox="0 0 512 512" fill="none" xmlns="http://www.w3.org/2000/svg">
<path d="M256 480C132.288 480 32 379.712 32 256C32 132.288 132.288 32 256 32C379.712 32 480 132.288 480 256C480 379.712 379.712 480 256 480ZM256 512C397.386 512 512 397.386 512 256C512 114.615 397.386 0 256 0C114.615 0 0 114.615 0 256C0 397.386 114.615 512 256 512Z" fill="#D9D9D9"/>
<path d="M256 126C264.975 126 272.25 133.275 272.25 142.25V239.75H369.75C378.723 239.75 386 247.025 386 256C386 264.975 378.723 272.25 369.75 272.25H272.25V369.75C272.25 378.723 264.975 386 256 386C247.025 386 239.75 378.723 239.75 369.75V272.25H142.25C133.275 272.25 126 264.975 126 256C126 247.025 133.275 239.75 142.25 239.75H239.75V142.25C239.75 133.275 247.025 126 256 126Z" fill="#4F4FC2"/>
</svg>
